<?xml version="1.0" standalone="no"?>
<!DOCTYPE svg PUBLIC "-//W3C//DTD SVG 20010904//EN"
 "http://www.w3.org/TR/2001/REC-SVG-20010904/DTD/svg10.dtd">
<svg version="1.0" xmlns="http://www.w3.org/2000/svg"
 width="2008.000000pt" height="2008.000000pt" viewBox="0 0 2008.000000 2008.000000"
 preserveAspectRatio="xMidYMid meet">
<metadata>
Created by potrace 1.14, written by Peter Selinger 2001-2017
</metadata>
<g transform="translate(0.000000,2008.000000) scale(0.100000,-0.100000)"
fill="#000000" stroke="none">
<path d="M10769 20076 c-2 -2 -42 -7 -89 -11 -114 -8 -187 -20 -305 -49 -55
-13 -129 -27 -165 -30 -36 -4 -101 -16 -145 -27 -44 -11 -89 -22 -100 -25 -11
-2 -33 -6 -50 -10 -16 -3 -43 -14 -60 -24 -16 -10 -61 -30 -99 -45 -142 -55
-201 -92 -321 -198 -211 -188 -281 -294 -350 -532 -32 -110 -49 -142 -153
-295 -106 -156 -130 -188 -247 -325 -135 -158 -302 -318 -466 -448 -47 -37
-91 -78 -98 -90 -7 -12 -39 -45 -73 -72 -33 -28 -76 -74 -95 -103 -19 -29 -49
-62 -68 -75 -73 -48 -235 -379 -271 -555 -9 -42 -21 -86 -27 -97 -6 -11 -14
-72 -18 -135 -4 -63 -10 -137 -13 -165 -3 -27 -8 -115 -11 -195 -3 -80 -8
-158 -10 -175 -2 -16 -7 -57 -10 -91 -3 -33 -7 -71 -10 -85 -2 -13 -9 -60 -15
-104 -7 -44 -14 -89 -16 -100 -3 -11 -7 -36 -10 -55 -2 -19 -7 -46 -10 -60 -2
-14 -7 -37 -9 -52 -3 -16 -7 -39 -9 -53 -3 -14 -7 -33 -10 -43 -3 -9 -7 -33
-10 -52 -10 -68 -66 -336 -87 -420 -21 -82 -56 -172 -133 -346 -62 -139 -70
-231 -25 -288 50 -63 102 -11 216 216 73 147 106 194 152 221 17 10 31 16 31
13 0 -5 -12 -37 -36 -91 -64 -149 -116 -328 -129 -445 -3 -30 -8 -62 -10 -70
-2 -8 -7 -42 -10 -75 -4 -33 -11 -82 -16 -110 -15 -74 -19 -186 -8 -207 15
-29 46 -22 65 14 9 18 31 46 48 63 17 17 49 63 70 103 23 42 57 87 80 106 23
18 72 65 110 105 69 70 98 87 92 54 -2 -10 -7 -52 -10 -93 -4 -41 -9 -86 -11
-100 -2 -14 -7 -54 -11 -90 -3 -36 -7 -72 -9 -80 -1 -8 -6 -46 -10 -83 -3 -37
-8 -76 -10 -85 -1 -9 -6 -57 -10 -107 -4 -49 -9 -108 -11 -130 -7 -78 -7 -391
0 -445 18 -141 39 -224 72 -290 54 -107 98 -106 170 7 80 125 92 119 199 -103
34 -71 84 -157 110 -190 54 -66 56 -69 140 -144 33 -29 68 -65 77 -79 17 -24
16 -27 -6 -66 -21 -36 -68 -168 -80 -227 -8 -37 -16 -79 -27 -140 -5 -31 -23
-104 -39 -161 -24 -86 -51 -211 -116 -549 -6 -30 -27 -51 -55 -55 -41 -6 -86
-32 -136 -77 -58 -52 -143 -160 -143 -181 0 -8 -13 -33 -29 -57 -34 -50 -79
-158 -87 -207 -10 -61 -14 -76 -30 -122 -15 -40 -15 -48 -2 -73 l14 -28 30 25
c16 14 51 58 78 98 27 41 72 97 100 125 28 27 65 66 83 86 38 43 76 63 150 78
45 10 57 9 64 -1 11 -19 2 -89 -27 -198 -13 -52 -26 -133 -29 -180 -2 -47 -7
-97 -10 -111 -6 -31 -7 -207 -1 -239 7 -34 26 -52 50 -49 31 4 83 89 96 156 6
31 21 84 32 117 11 33 39 137 62 230 44 174 68 245 84 245 5 0 29 -14 53 -31
116 -82 191 -181 234 -307 32 -97 54 -125 90 -116 58 14 116 138 102 219 -13
76 -119 277 -172 325 -15 14 -38 48 -52 75 -34 67 -49 83 -103 107 -47 21 -92
56 -86 67 2 3 7 31 11 61 4 30 8 57 10 60 1 3 6 32 9 65 4 33 9 71 11 85 3 14
7 48 10 75 3 28 14 109 25 180 11 72 22 146 25 165 13 81 59 279 77 328 18 48
21 52 46 46 15 -4 50 -19 77 -34 28 -15 72 -30 98 -32 26 -3 50 -8 54 -12 4
-4 -1 -31 -11 -61 -11 -30 -19 -58 -18 -62 0 -4 -4 -15 -8 -23 -14 -26 -55
-287 -65 -415 -3 -38 -8 -88 -10 -110 -22 -204 -23 -240 -9 -275 13 -30 14
-30 41 -16 15 8 77 65 138 126 60 60 113 110 117 110 4 0 15 -15 24 -32 40
-79 74 -86 186 -38 117 50 171 43 189 -23 32 -123 90 -118 175 14 24 38 76
102 115 141 39 40 81 89 94 108 12 19 46 61 74 93 28 33 62 80 75 105 14 26
43 65 66 87 23 22 51 57 62 79 11 21 38 57 61 80 23 22 59 63 80 89 38 46 116
95 147 92 8 -1 20 -3 27 -3 20 -3 32 -73 27 -152 -16 -206 -4 -364 31 -417 9
-13 35 -35 58 -50 23 -16 48 -35 55 -45 6 -9 26 -19 43 -23 35 -8 64 -48 74
-104 4 -20 19 -65 34 -101 15 -36 35 -85 44 -110 9 -25 51 -88 92 -140 70 -89
109 -153 117 -193 2 -14 -16 -26 -77 -53 -211 -92 -322 -162 -381 -239 -28
-37 -34 -76 -20 -130 2 -11 5 -46 5 -77 1 -53 17 -88 41 -88 17 0 40 32 51 72
12 48 91 131 161 170 53 30 205 79 264 86 36 4 44 1 58 -20 14 -22 57 -171 71
-248 3 -14 7 -36 10 -50 4 -14 8 -63 11 -110 7 -117 12 -147 30 -165 23 -23
40 -18 62 18 27 45 33 85 38 276 4 185 9 255 19 271 7 11 31 7 105 -17 60 -20
75 -35 110 -109 22 -45 44 -72 84 -103 31 -24 59 -55 66 -74 22 -59 38 -82 57
-79 23 5 23 5 29 33 13 58 4 148 -21 229 -15 47 -37 123 -50 170 -19 70 -29
90 -55 110 -18 14 -64 51 -103 83 -53 43 -87 62 -139 78 -86 27 -114 50 -169
141 -46 78 -91 137 -295 388 -98 121 -108 144 -100 235 11 125 29 201 61 266
14 27 25 50 25 51 0 2 9 30 20 62 11 33 23 89 26 125 9 88 21 109 90 154 58
37 71 53 123 152 32 60 89 189 97 220 1 6 23 69 49 140 67 188 71 199 100 315
15 58 44 157 65 220 21 63 42 140 45 170 4 30 11 60 15 65 5 6 14 41 20 78 12
78 17 93 75 212 69 146 118 262 210 507 10 26 24 53 31 59 8 6 14 17 14 24 0
7 33 37 73 66 39 30 86 69 102 87 17 19 48 43 70 54 22 12 54 31 70 43 17 12
64 35 105 50 41 15 87 39 102 52 70 66 218 441 253 643 10 63 13 74 25 127 16
72 9 138 -28 260 -26 82 -39 150 -47 244 -7 75 -9 91 -35 214 -11 50 -22 115
-24 145 -3 30 -10 84 -16 120 -6 36 -13 81 -17 101 -3 20 -16 49 -29 64 -13
16 -25 34 -25 42 -1 7 -2 16 -3 21 -1 4 -6 27 -10 52 -39 212 -177 551 -324
794 -30 50 -76 133 -104 187 -54 105 -95 154 -164 194 -57 34 -161 131 -181
169 -12 24 -14 48 -8 125 14 176 9 513 -7 586 -5 22 -11 75 -13 118 -3 45 -15
111 -30 158 -14 45 -27 96 -29 113 -3 17 -7 43 -10 56 -3 14 -8 38 -11 54 -6
41 -70 161 -113 215 -39 48 -43 52 -108 122 -54 58 -167 118 -275 146 -28 7
-533 16 -540 9z m723 -944 c19 -19 15 -89 -9 -167 -24 -77 -28 -83 -69 -105
-35 -20 -49 -22 -71 -14 -62 21 -123 164 -93 218 30 57 204 106 242 68z
m-1775 -80 c52 -28 77 -104 48 -148 -8 -12 -17 -35 -19 -50 -3 -16 -19 -46
-35 -69 -26 -36 -33 -40 -72 -40 -41 0 -44 2 -68 49 -40 77 -38 240 3 269 14
10 119 2 143 -11z m932 -206 c7 -6 52 -32 100 -57 106 -57 122 -80 125 -184 2
-52 -1 -75 -9 -75 -7 0 -38 10 -71 21 -44 16 -92 23 -189 27 -219 9 -243 8
-340 -27 -49 -17 -102 -34 -118 -36 l-29 -6 20 28 c35 49 96 99 187 153 135
79 165 101 214 151 48 50 50 50 110 5z"/>
<path d="M179 9242 c-48 -14 -101 -48 -119 -76 -15 -25 -20 -50 -20 -99 0 -56
4 -70 26 -97 15 -17 45 -40 68 -52 l41 -22 9840 0 c5927 -1 9859 3 9889 8 37
7 60 20 93 51 42 41 43 42 43 110 0 82 -20 120 -82 155 l-43 25 -9861 1
c-5423 0 -9867 -2 -9875 -4z"/>
<path d="M151 8427 c-19 -6 -51 -27 -73 -47 -38 -37 -38 -37 -38 -115 0 -77 0
-78 38 -114 21 -20 57 -42 79 -49 59 -18 19707 -18 19766 0 22 7 58 29 79 49
38 35 38 37 38 112 0 76 -1 78 -38 115 -20 20 -56 43 -78 50 -56 16 -19721 16
-19773 -1z"/>
<path d="M16738 7175 c-2 -1 -34 -5 -73 -8 -38 -3 -80 -8 -93 -11 -178 -39
-307 -102 -406 -200 -127 -126 -192 -276 -212 -491 -1 -16 -3 -138 -3 -271
l-1 -241 -247 1 c-137 1 -254 0 -260 -2 -10 -3 -13 -48 -13 -182 l0 -177 258
1 257 1 3 -1121 2 -1122 208 2 207 1 2 1110 c1 610 4 1114 6 1120 3 7 146 10
434 9 l429 0 0 180 -1 180 -433 0 -433 0 1 247 c1 170 5 263 15 297 51 194
194 290 440 296 101 2 184 -13 262 -49 l52 -23 54 166 53 167 -23 18 c-36 29
-140 67 -222 83 -63 12 -255 26 -263 19z"/>
<path d="M6133 5488 c2 -915 7 -1679 10 -1698 64 -324 241 -474 572 -485 141
-4 230 6 341 40 l82 25 22 115 c12 64 24 128 26 143 3 15 9 44 14 65 9 44 6
45 -75 17 -89 -31 -192 -46 -289 -43 -76 2 -98 6 -150 32 -83 41 -115 91 -133
206 -3 22 -6 761 -6 1643 l-1 1602 -208 0 -208 0 3 -1662z"/>
<path d="M9618 6348 l-3 -801 -37 59 c-43 71 -143 177 -213 226 -59 42 -178
103 -220 114 -17 4 -34 10 -40 14 -5 4 -35 13 -65 19 -408 81 -809 -39 -1097
-328 -89 -89 -194 -238 -238 -336 -15 -33 -30 -67 -35 -75 -16 -33 -60 -189
-75 -275 -20 -105 -28 -425 -14 -525 5 -36 12 -83 15 -104 10 -69 53 -225 80
-289 162 -385 449 -634 829 -719 99 -22 319 -32 395 -18 25 5 61 11 80 14 100
15 253 77 355 144 116 75 228 196 278 300 24 49 33 53 34 15 0 -32 14 -280 18
-333 2 -19 4 -49 4 -67 l1 -31 168 0 c92 -1 174 1 182 3 13 4 15 223 15 1897
l0 1893 -207 3 -208 2 -2 -802z m-663 -719 c90 -15 107 -20 168 -44 78 -32
148 -78 216 -140 50 -46 131 -146 131 -161 0 -3 8 -18 18 -32 18 -27 71 -143
77 -172 45 -193 47 -210 49 -365 1 -146 -5 -238 -19 -305 -3 -14 -8 -41 -11
-60 -9 -50 -62 -196 -92 -255 -106 -211 -282 -354 -497 -406 -88 -21 -293 -30
-341 -15 -11 3 -34 8 -51 11 -54 9 -159 50 -220 86 -174 104 -333 353 -368
579 -3 19 -7 46 -10 60 -15 78 -17 107 -17 235 0 77 3 159 6 182 4 23 9 55 11
70 21 161 104 360 195 467 87 102 159 159 264 206 61 28 153 55 211 63 57 7
230 5 280 -4z"/>
<path d="M12755 5503 c1 -907 4 -1657 7 -1668 4 -11 9 -38 13 -60 24 -170 109
-307 240 -387 92 -57 195 -81 350 -82 168 -1 265 14 365 56 l36 15 27 154 c16
85 31 167 34 182 l5 28 -38 -15 c-151 -59 -346 -77 -452 -42 -72 24 -125 76
-148 146 -18 53 -19 127 -22 1688 l-2 1632 -208 0 -208 0 1 -1647z"/>
<path d="M4881 7064 c-157 -41 -242 -194 -208 -379 26 -146 162 -240 330 -230
79 5 141 31 195 84 133 130 115 379 -36 483 -24 16 -59 34 -77 39 -57 16 -148
17 -204 3z"/>
<path d="M14490 7068 c-59 -13 -139 -66 -172 -114 -60 -87 -71 -237 -23 -337
64 -137 229 -198 395 -145 125 39 201 159 195 308 -6 136 -79 240 -195 278
-49 17 -146 21 -200 10z"/>
<path d="M18777 6004 c-1 -1 -34 -4 -74 -8 -265 -22 -535 -146 -718 -331 -200
-201 -331 -484 -362 -785 -17 -165 -8 -456 18 -570 6 -25 13 -55 15 -68 23
-118 100 -297 182 -422 182 -275 436 -430 827 -506 69 -13 333 -12 430 2 344
48 623 214 800 473 64 96 66 88 -25 137 -25 14 -67 39 -95 56 -27 17 -73 43
-101 59 l-51 29 -38 -57 c-74 -112 -205 -223 -327 -277 -201 -89 -514 -94
-725 -10 -233 92 -396 287 -471 564 -22 80 -45 230 -37 238 3 3 444 6 981 6
969 1 977 1 980 21 23 134 19 414 -6 530 -5 22 -11 51 -14 65 -6 32 -34 129
-45 155 -165 407 -473 643 -901 690 -60 7 -237 14 -243 9z m301 -393 c213 -62
368 -197 446 -390 37 -91 62 -223 57 -302 -1 -14 -73 -16 -772 -16 l-770 0 5
36 c13 80 40 169 77 248 102 224 278 373 499 427 98 23 104 24 250 21 102 -2
153 -8 208 -24z"/>
<path d="M85 5949 c-4 -5 35 -120 156 -469 22 -63 49 -140 59 -170 10 -30 42
-120 70 -200 28 -80 60 -170 70 -200 10 -30 50 -145 88 -255 39 -110 107 -306
152 -435 44 -129 94 -271 109 -315 16 -44 49 -138 74 -210 25 -71 62 -178 82
-236 l37 -106 204 -1 c147 -1 206 3 211 11 7 11 267 781 565 1680 68 202 125
367 128 367 3 0 15 -28 27 -63 25 -73 120 -341 193 -547 28 -80 78 -219 110
-310 32 -91 95 -268 140 -395 45 -126 122 -345 172 -487 l90 -256 203 -1 c149
0 206 3 213 12 5 6 22 48 37 92 15 44 59 170 97 280 39 110 92 263 118 340 27
77 83 239 125 360 42 121 112 321 155 445 43 124 106 304 140 400 34 96 67
193 75 215 7 22 45 132 84 244 40 112 70 206 67 209 -10 10 -439 7 -451 -3 -6
-5 -30 -71 -53 -145 -22 -74 -63 -207 -90 -295 -28 -88 -55 -176 -60 -195 -6
-19 -24 -78 -40 -130 -17 -52 -58 -185 -92 -295 -33 -110 -72 -234 -85 -275
-13 -41 -42 -133 -64 -205 -75 -245 -130 -420 -153 -493 l-23 -73 -349 1048
c-193 576 -353 1052 -358 1057 -8 10 -403 14 -413 4 -3 -3 -163 -475 -355
-1049 -192 -574 -351 -1048 -353 -1052 -1 -5 -28 74 -59 175 -48 155 -117 381
-278 898 -16 52 -64 205 -105 340 -42 135 -96 308 -120 385 -24 77 -53 174
-66 215 -12 41 -26 79 -30 84 -9 10 -449 15 -454 5z"/>
<path d="M4778 5949 c-7 -5 -14 -2043 -9 -2551 l1 -47 207 2 207 2 1 1293 c0
829 -3 1296 -9 1300 -13 8 -385 9 -398 1z"/>
<path d="M14371 5940 c-5 -11 -7 -2443 -2 -2567 1 -21 2 -22 206 -21 l205 0 1
27 c0 14 1 599 2 1298 1 843 -1 1273 -8 1274 -5 0 -97 2 -203 2 -164 2 -195 0
-201 -13z"/>
<path d="M13277 2384 c-1 -1 -31 -5 -67 -8 -235 -23 -389 -143 -435 -339 -23
-98 -23 -105 -24 -217 l-1 -105 -110 1 -110 1 0 -116 0 -116 108 0 107 0 3
-733 2 -732 140 0 140 0 0 68 c1 37 2 366 3 732 l2 665 175 0 175 0 0 115 0
115 -160 2 c-88 0 -168 2 -178 2 -17 1 -18 10 -13 114 4 111 11 142 43 203 20
38 96 91 143 99 19 3 44 8 55 10 11 2 37 4 58 4 l37 1 0 118 0 118 -46 0 c-25
-1 -46 -2 -47 -2z"/>
<path d="M7637 2365 c-154 -53 -169 -276 -24 -352 44 -22 118 -24 163 -3 74
33 114 102 109 187 -7 127 -129 209 -248 168z"/>
<path d="M12015 2364 c-103 -35 -156 -165 -106 -262 39 -76 107 -114 193 -106
170 16 225 246 82 347 -46 32 -112 41 -169 21z"/>
<path d="M8319 2293 c0 -23 0 -2233 0 -2255 1 -16 15 -18 141 -18 l140 0 0
1145 0 1145 -140 0 c-126 0 -140 -2 -141 -17z"/>
<path d="M10410 1863 l0 -446 -32 44 c-72 101 -202 194 -334 239 -293 101
-619 28 -831 -187 -280 -285 -320 -813 -88 -1168 108 -165 255 -273 445 -326
53 -15 95 -18 225 -15 88 1 169 5 180 8 11 4 34 11 50 16 139 44 282 150 359
267 l26 40 0 -158 0 -157 143 0 144 0 0 1145 0 1145 -144 0 -143 0 0 -447z
m-448 -377 c217 -47 377 -211 432 -446 15 -66 17 -272 2 -335 -53 -230 -214
-400 -430 -450 -70 -17 -217 -14 -286 5 -212 57 -376 255 -408 490 -11 88 -6
240 12 310 78 312 365 492 678 426z"/>
<path d="M11174 1165 l0 -1145 141 0 140 0 0 1145 0 1145 -141 0 -141 0 1
-1145z"/>
<path d="M14305 1733 c-429 -63 -693 -390 -693 -858 -1 -437 232 -759 618
-856 71 -18 104 -20 254 -17 161 4 176 6 264 36 199 68 349 200 436 383 61
129 66 122 -106 122 -81 1 -149 -1 -150 -4 -2 -2 -15 -29 -31 -59 -52 -104
-156 -190 -272 -226 -79 -25 -236 -27 -322 -5 -150 39 -275 137 -340 266 -46
91 -78 244 -51 246 7 0 311 1 675 2 364 1 664 5 668 9 12 12 8 259 -5 328 -54
290 -237 506 -507 598 -127 44 -290 57 -438 35z m296 -247 c212 -55 368 -244
369 -447 l0 -46 -534 -1 c-488 0 -534 2 -531 17 1 9 6 38 9 64 26 173 165 341
336 403 95 34 240 38 351 10z"/>
<path d="M4825 1691 c6 -25 72 -240 102 -331 8 -25 36 -115 63 -200 55 -177
197 -629 271 -863 28 -87 52 -166 54 -175 2 -9 10 -35 18 -57 l14 -40 146 -3
c158 -3 149 -6 163 53 4 14 61 202 129 425 31 102 58 192 60 200 4 14 192 634
199 655 4 12 7 5 41 -110 14 -49 33 -110 41 -135 8 -25 64 -209 125 -410 61
-201 126 -417 146 -480 19 -63 36 -122 38 -130 2 -8 8 -27 14 -43 l11 -27 144
0 144 0 37 117 c20 65 44 141 52 168 9 28 33 104 53 170 21 66 55 174 75 240
21 66 48 154 61 195 12 41 51 163 85 270 33 107 69 222 79 255 22 73 79 256
84 271 3 7 -39 11 -135 11 -148 0 -144 1 -155 -52 -2 -12 -35 -136 -65 -245
-11 -41 -33 -122 -48 -180 -16 -58 -47 -175 -70 -260 -24 -85 -44 -162 -46
-170 -17 -70 -128 -479 -134 -494 -8 -20 -9 -16 -61 164 -12 41 -26 89 -31
105 -9 26 -92 317 -276 960 -25 88 -50 163 -55 166 -6 4 -71 6 -147 6 l-137 0
-63 -216 c-35 -119 -92 -310 -126 -426 -35 -116 -100 -336 -145 -490 -46 -154
-84 -282 -86 -283 -1 -2 -7 13 -13 35 -10 36 -32 117 -66 243 -8 30 -35 127
-59 215 -25 88 -54 196 -66 240 -29 108 -43 158 -83 305 -19 69 -37 136 -40
150 -3 14 -7 28 -8 32 -1 4 -14 49 -29 100 l-28 93 -142 1 -142 1 7 -26z"/>
<path d="M7558 1706 c-2 -6 -3 -387 -3 -846 l1 -835 141 -3 141 -3 0 849 0
849 -138 0 c-92 0 -140 -4 -142 -11z"/>
<path d="M11939 1711 c-1 -3 -2 -385 -3 -849 l-1 -842 141 0 141 0 0 848 1
848 -139 1 c-77 0 -140 -2 -140 -6z"/>
</g>
</svg>
